<svg xmlns="http://www.w3.org/2000/svg" width="17.178" height="13.469" viewBox="0 0 17.178 13.469">
  <g id="_01" data-name="01" transform="translate(-1.971 -5)">
    <path id="Path_8" data-name="Path 8" d="M17.306,18.469H3.837A1.837,1.837,0,0,1,2,16.632v-9.8A1.837,1.837,0,0,1,3.837,5H17.306a1.837,1.837,0,0,1,1.837,1.837v9.8A1.837,1.837,0,0,1,17.306,18.469ZM3.837,6.224a.612.612,0,0,0-.612.612v9.8a.612.612,0,0,0,.612.612H17.306a.612.612,0,0,0,.612-.612v-9.8a.612.612,0,0,0-.612-.612Z" transform="translate(-0.011)" fill="#fff"/>
    <path id="Path_9" data-name="Path 9" d="M10.56,14.188a.612.612,0,0,1-.315-.088L2.286,9.317a.612.612,0,1,1,.631-1.049l7.644,4.593L18.2,8.27a.612.612,0,1,1,.631,1.049L10.875,14.1A.612.612,0,0,1,10.56,14.188Z" transform="translate(0 -1.229)" fill="#fff"/>
  </g>
</svg>
