<svg xmlns="http://www.w3.org/2000/svg" width="19.079" height="23.112" viewBox="0 0 19.079 23.112">
  <g id="Group_14" data-name="Group 14" transform="matrix(0.966, -0.259, 0.259, 0.966, -18.373, 3.469)">
    <path id="Path_7" data-name="Path 7" d="M28.514,25.014c1.7.54,3.531-2.722,3.542-3.269.018-.932-2.852-3.818-3.273-3.592a9.42,9.42,0,0,1-2.942.913c-1.246-.349-4.483-5.955-4.162-7.209a9.417,9.417,0,0,1,2.261-2.091c.406-.251-.658-4.18-1.474-4.631-.479-.264-4.219-.309-4.6,1.433-1.319,6,4.792,16.587,10.65,18.447Z" transform="translate(0)" fill="#fff" fill-rule="evenodd"/>
  </g>
</svg>
