<svg xmlns="http://www.w3.org/2000/svg" width="28" height="28" viewBox="0 0 28 28">
  <g id="Group_106" data-name="Group 106" transform="translate(-1092 -9195)">
    <circle id="Ellipse_12" data-name="Ellipse 12" cx="14" cy="14" r="14" transform="translate(1092 9195)" fill="#ede9e1"/>
    <g id="Group_30" data-name="Group 30" transform="translate(1099.062 9203.293)">
      <path id="Path_10" data-name="Path 10" d="M1233.279,68.446a5.684,5.684,0,0,1-1.636.448,2.858,2.858,0,0,0,1.253-1.576,5.708,5.708,0,0,1-1.809.691,2.851,2.851,0,0,0-4.855,2.6,8.088,8.088,0,0,1-5.872-2.977,2.851,2.851,0,0,0,.882,3.8,2.837,2.837,0,0,1-1.29-.357c0,.012,0,.024,0,.036a2.85,2.85,0,0,0,2.285,2.793,2.854,2.854,0,0,1-1.286.049,2.852,2.852,0,0,0,2.662,1.978,5.75,5.75,0,0,1-4.218,1.18,8.1,8.1,0,0,0,12.473-6.826q0-.185-.009-.368a5.786,5.786,0,0,0,1.422-1.475Zm0,0" transform="translate(-1219.393 -67.11)" fill="#cc3029"/>
    </g>
  </g>
</svg>
