<svg id="Group_72" data-name="Group 72" xmlns="http://www.w3.org/2000/svg" xmlns:xlink="http://www.w3.org/1999/xlink" width="35.285" height="34.72" viewBox="0 0 35.285 34.72">
  <defs>
    <linearGradient id="linear-gradient" x1="-0.113" y1="1.852" x2="1.163" y2="0.126" gradientUnits="objectBoundingBox">
      <stop offset="0" stop-color="#fff36e"/>
      <stop offset="0.371" stop-color="#e4b354"/>
      <stop offset="1" stop-color="#b39148"/>
    </linearGradient>
  </defs>
  <path id="Path_426" data-name="Path 426" d="M46.076,18.755a5.082,5.082,0,0,0-9.382-2.713A16.427,16.427,0,0,0,20.255,14.7a4.5,4.5,0,0,0-8.826,1.219,14.936,14.936,0,0,0,1.857,5.005,16.523,16.523,0,1,0,30.037,4.7C44.693,23.278,46.076,20.1,46.076,18.755Zm-5.087-4.187a4.191,4.191,0,0,1,4.187,4.187c0,2.194-3.259,7.667-4.187,8.678-.927-1.011-4.187-6.484-4.187-8.678A4.192,4.192,0,0,1,40.989,14.568Zm-4.711,2.277a5.055,5.055,0,0,0-.375,1.91,4.975,4.975,0,0,0,.222,1.253q-.6.162-1.242.3a13.213,13.213,0,0,0-3.966-5.881A15.55,15.55,0,0,1,36.278,16.845ZM18.18,29.734a26.891,26.891,0,0,0,1.4,8.678,23.116,23.116,0,0,0-4.19,1.291,15.543,15.543,0,0,1-3.7-9.969H18.18Zm12.6,1.07c0,1.9-2.75,6.518-3.6,7.493-.85-.974-3.6-5.591-3.6-7.493a3.6,3.6,0,1,1,7.2,0Zm-3.97-9.726a36.622,36.622,0,0,1-6.171-.581c1.4-3.687,3.633-6.169,6.171-6.46Zm0,.9v4.345a4.5,4.5,0,0,0-3.668,2.512H19.089a26.264,26.264,0,0,1,1.242-7.481A37.417,37.417,0,0,0,26.806,21.977ZM19.08,29.734h3.732a4.487,4.487,0,0,0-.134,1.07c0,1.351,1.591,4.794,2.941,6.864a36.8,36.8,0,0,0-5.17.571A26.334,26.334,0,0,1,19.08,29.734Zm7.167,8.813a3.844,3.844,0,0,0,.56.591v6.069c-2.457-.283-4.626-2.619-6.035-6.114A36.45,36.45,0,0,1,26.247,38.546Zm1.46.452a4.756,4.756,0,0,0,.407-.459,36.656,36.656,0,0,1,5.732.553c-1.43,3.545-3.64,5.9-6.14,6.126V39Zm1.037-1.343c1.349-2.072,2.934-5.5,2.934-6.852a4.487,4.487,0,0,0-.134-1.07h3.994a26.341,26.341,0,0,1-1.369,8.5A36.957,36.957,0,0,0,28.743,37.655Zm7.694-7.922h6.487a15.542,15.542,0,0,1-3.7,9.97,23.158,23.158,0,0,0-4.189-1.293A26.867,26.867,0,0,0,36.437,29.734Zm-.9-.9H31.217a4.5,4.5,0,0,0-3.511-2.5V21.978a37.45,37.45,0,0,0,6.577-.629A25.534,25.534,0,0,1,35.539,28.8Zm-7.832-7.756V14.022c2.545.238,4.832,2.75,6.27,6.469A36.653,36.653,0,0,1,27.706,21.078Zm-3.972-6.655a13.356,13.356,0,0,0-3.965,5.9c-.27-.058-.535-.121-.8-.186a12.757,12.757,0,0,0,1.455-4.216c0-.1-.009-.2-.015-.3A15.5,15.5,0,0,1,23.734,14.423Zm-7.805-2.105a3.6,3.6,0,0,1,3.6,3.6c0,1.9-2.75,6.519-3.6,7.493-.85-.974-3.6-5.591-3.6-7.493A3.6,3.6,0,0,1,15.929,12.318Zm0,12.112c.522,0,1.636-1.61,2.625-3.475q.449.115.913.218a26.828,26.828,0,0,0-1.277,7.66h-6.47a15.5,15.5,0,0,1,2.07-7C14.636,23.3,15.49,24.43,15.929,24.43Zm.108,15.983A22.717,22.717,0,0,1,19.9,39.262a13.083,13.083,0,0,0,3.835,5.559A15.616,15.616,0,0,1,16.036,40.414Zm14.843,4.408a13.083,13.083,0,0,0,3.836-5.56,22.828,22.828,0,0,1,3.866,1.151A15.619,15.619,0,0,1,30.879,44.822ZM42.9,28.834H36.439v-.04a26.661,26.661,0,0,0-1.254-7.633q.622-.138,1.214-.3c1.088,3.06,3.663,7.572,4.59,7.572.363,0,.978-.693,1.658-1.717A15.624,15.624,0,0,1,42.9,28.834Z" transform="translate(-10.791 -11.418)" fill="url(#linear-gradient)"/>
  <path id="Path_427" data-name="Path 427" d="M75.322,27.191a2.112,2.112,0,1,0-2.113-2.112A2.114,2.114,0,0,0,75.322,27.191Zm0-3.325a1.212,1.212,0,1,1-1.213,1.213A1.214,1.214,0,0,1,75.322,23.865Z" transform="translate(-45.124 -17.77)" fill="url(#linear-gradient)"/>
  <path id="Path_428" data-name="Path 428" d="M21.786,19.038a1.9,1.9,0,1,0-1.9,1.9A1.9,1.9,0,0,0,21.786,19.038Zm-2.9,0a1,1,0,1,1,1,1A1,1,0,0,1,18.882,19.038Z" transform="translate(-14.746 -14.563)" fill="url(#linear-gradient)"/>
  <path id="Path_429" data-name="Path 429" d="M44.883,50.218a1.9,1.9,0,1,0,1.9,1.9A1.9,1.9,0,0,0,44.883,50.218Zm0,2.9a1,1,0,1,1,1-1A1,1,0,0,1,44.883,53.122Z" transform="translate(-28.497 -32.76)" fill="url(#linear-gradient)"/>
</svg>
