<svg id="Group_71" data-name="Group 71" xmlns="http://www.w3.org/2000/svg" xmlns:xlink="http://www.w3.org/1999/xlink" width="31.05" height="34.863" viewBox="0 0 31.05 34.863">
  <defs>
    <linearGradient id="linear-gradient" x1="-20.183" y1="1.993" x2="15.827" y2="-3.537" gradientUnits="objectBoundingBox">
      <stop offset="0" stop-color="#fff36e"/>
      <stop offset="0.32" stop-color="#e4b354"/>
      <stop offset="1" stop-color="#b39148"/>
    </linearGradient>
  </defs>
  <g id="Group_55" data-name="Group 55" transform="translate(23.968 20.046)">
    <path id="Path_412" data-name="Path 412" d="M51.045,46.407a.545.545,0,0,1-.545-.545V40.345a.545.545,0,1,1,1.089,0v5.518A.545.545,0,0,1,51.045,46.407Z" transform="translate(-50.5 -39.8)" fill="url(#linear-gradient)"/>
  </g>
  <g id="Group_56" data-name="Group 56" transform="translate(0 0)">
    <path id="Path_413" data-name="Path 413" d="M29.2,37.863H8.853A2.359,2.359,0,0,1,6.5,35.5V5.353A2.356,2.356,0,0,1,8.853,3H29.2a2.356,2.356,0,0,1,2.353,2.353V18.285a.545.545,0,1,1-1.089,0V5.353A1.265,1.265,0,0,0,29.2,4.089H8.853A1.265,1.265,0,0,0,7.589,5.353V35.5a1.268,1.268,0,0,0,1.264,1.269H29.2A1.268,1.268,0,0,0,30.468,35.5V33.467a.545.545,0,1,1,1.089,0V35.5A2.359,2.359,0,0,1,29.2,37.863Z" transform="translate(-6.5 -3)" fill="url(#linear-gradient)"/>
  </g>
  <g id="Group_57" data-name="Group 57" transform="translate(3.268 4.903)">
    <path id="Path_414" data-name="Path 414" d="M30.476,38.692H13.045a.545.545,0,0,1-.545-.545v-25.6A.545.545,0,0,1,13.045,12H30.476a.545.545,0,0,1,.545.545V23.832a.545.545,0,0,1-1.089,0V13.089H13.589V37.6H29.931V36.115a.545.545,0,0,1,1.089,0v2.032A.545.545,0,0,1,30.476,38.692Z" transform="translate(-12.5 -12)" fill="url(#linear-gradient)"/>
  </g>
  <g id="Group_58" data-name="Group 58" transform="translate(7.082 2.722)">
    <path id="Path_415" data-name="Path 415" d="M22.768,9.086H20.045a.545.545,0,0,1,0-1.089h2.724a.545.545,0,0,1,0,1.089Z" transform="translate(-19.5 -7.996)" fill="url(#linear-gradient)"/>
  </g>
  <g id="Group_59" data-name="Group 59" transform="translate(11.984 2.722)">
    <path id="Path_416" data-name="Path 416" d="M30.679,9.086H29.045a.545.545,0,1,1,0-1.089h1.634a.545.545,0,1,1,0,1.089Z" transform="translate(-28.5 -7.996)" fill="url(#linear-gradient)"/>
  </g>
  <g id="Group_60" data-name="Group 60" transform="translate(15.797 2.724)">
    <path id="Path_417" data-name="Path 417" d="M36.045,9.088a.545.545,0,0,1-.207-.044.627.627,0,0,1-.18-.114.54.54,0,0,1-.115-.594.493.493,0,0,1,.294-.294.547.547,0,0,1,.414,0,.563.563,0,0,1,.18.114.631.631,0,0,1,.114.18.539.539,0,0,1-.114.594.628.628,0,0,1-.18.114A.544.544,0,0,1,36.045,9.088Z" transform="translate(-35.5 -8.001)" fill="url(#linear-gradient)"/>
  </g>
  <g id="Group_66" data-name="Group 66" transform="translate(17.976 14.742)">
    <g id="Group_61" data-name="Group 61" transform="translate(0)">
      <path id="Path_418" data-name="Path 418" d="M46.037,36.455a.54.54,0,0,1-.221-.047l-5.992-2.651a.544.544,0,0,1,0-1l5.992-2.652a.54.54,0,0,1,.441,0l5.992,2.652a.544.544,0,0,1,0,1l-5.992,2.651A.541.541,0,0,1,46.037,36.455Zm-4.646-3.2,4.646,2.056,4.646-2.056L46.037,31.2Z" transform="translate(-39.5 -30.062)" fill="url(#linear-gradient)"/>
    </g>
    <g id="Group_62" data-name="Group 62" transform="translate(0 10.35)">
      <path id="Path_419" data-name="Path 419" d="M46.036,52.8a.54.54,0,0,1-.22-.047L39.824,50.1a.545.545,0,1,1,.441-1l5.772,2.554,5.772-2.554a.545.545,0,1,1,.441,1l-5.992,2.652A.541.541,0,0,1,46.036,52.8Z" transform="translate(-39.499 -49.062)" fill="url(#linear-gradient)"/>
    </g>
    <g id="Group_63" data-name="Group 63" transform="translate(0 12.529)">
      <path id="Path_420" data-name="Path 420" d="M46.036,56.8a.54.54,0,0,1-.22-.047L39.824,54.1a.545.545,0,1,1,.441-1l5.772,2.554,5.772-2.554a.545.545,0,1,1,.441,1l-5.992,2.652A.541.541,0,0,1,46.036,56.8Z" transform="translate(-39.499 -53.062)" fill="url(#linear-gradient)"/>
    </g>
    <g id="Group_64" data-name="Group 64" transform="translate(0 2.652)">
      <path id="Path_421" data-name="Path 421" d="M46.037,44.191a.54.54,0,0,1-.221-.047l-5.992-2.652a.545.545,0,0,1-.324-.5V35.475a.545.545,0,0,1,1.089,0V40.64l5.447,2.411,5.447-2.411V35.475a.545.545,0,0,1,1.089,0v5.519a.545.545,0,0,1-.324.5l-5.992,2.652A.541.541,0,0,1,46.037,44.191Z" transform="translate(-39.5 -34.931)" fill="url(#linear-gradient)"/>
    </g>
    <g id="Group_65" data-name="Group 65" transform="translate(5.992 5.303)">
      <path id="Path_422" data-name="Path 422" d="M51.045,46.407a.545.545,0,0,1-.545-.545v-5.52a.545.545,0,0,1,1.089,0v5.52A.545.545,0,0,1,51.045,46.407Z" transform="translate(-50.5 -39.798)" fill="url(#linear-gradient)"/>
    </g>
  </g>
  <g id="Group_69" data-name="Group 69" transform="translate(6.722 8.219)">
    <g id="Group_67" data-name="Group 67">
      <path id="Path_423" data-name="Path 423" d="M22.732,32.8h0a.545.545,0,0,1-.506-.344c-.347-.871-3.387-8.572-3.387-10.471a3.893,3.893,0,1,1,7.786,0c0,1.9-3.04,9.6-3.387,10.471A.545.545,0,0,1,22.732,32.8Zm0-13.618a2.807,2.807,0,0,0-2.8,2.8c0,1.214,1.72,5.95,2.8,8.771,1.084-2.822,2.8-7.557,2.8-8.771A2.807,2.807,0,0,0,22.732,19.177Z" transform="translate(-18.839 -18.088)" fill="url(#linear-gradient)"/>
    </g>
    <g id="Group_68" data-name="Group 68" transform="translate(2.259 2.674)">
      <path id="Path_424" data-name="Path 424" d="M24.62,26.265a1.634,1.634,0,1,1,1.634-1.634A1.636,1.636,0,0,1,24.62,26.265Zm0-2.179a.545.545,0,1,0,.545.545A.545.545,0,0,0,24.62,24.086Z" transform="translate(-22.986 -22.996)" fill="url(#linear-gradient)"/>
    </g>
  </g>
  <g id="Group_70" data-name="Group 70" transform="translate(12.303 15.795)">
    <path id="Path_425" data-name="Path 425" d="M35.022,37.443a.54.54,0,0,1-.342-.121L33.1,36.045a.545.545,0,1,1,.685-.847l1.58,1.277a.545.545,0,0,1-.343.968Zm-3.7-2.989a.543.543,0,0,1-.342-.121l-1.695-1.369a.545.545,0,0,1,.685-.848l1.695,1.369a.545.545,0,0,1-.343.969Z" transform="translate(-29.085 -31.996)" fill="url(#linear-gradient)"/>
  </g>
</svg>
